<svg fill="currentColor" version="1.1" viewBox="0 0 16 16" xmlns="http://www.w3.org/2000/svg">
  <path d="m0.51594-3.1056e-4c-0.28601 0-0.51625 0.20577-0.51625 0.46141v11.809c0 0.2556 0.23024 0.46142 0.51625 0.46142h3.2557c0.3937 0.06728 0.88992 0.29386 1.5666 0.68651-1.5336 0.44681-2.56 1.1854-2.56 1.6073 0 0.63374 2.3291 0.87553 5.2023 0.87553 2.8731 0 5.2022-0.24179 5.2022-0.87553 0-0.4319-1.0885-1.1959-2.6913-1.6388 0.56437-0.37307 0.99588-0.59339 1.3771-0.655h3.5154c0.28601 0 0.51628-0.20582 0.51628-0.46142v-11.809c0-0.25564-0.23026-0.46141-0.51628-0.46141zm1.6311 1.5008h11.583c0.58266 0 0.69808 0.11736 0.69808 0.63819v6.6516c0 0.52082-0.11542 0.94012-0.69808 0.94012h-11.537c-0.58269 0-0.70311-0.4193-0.70311-0.94012v-6.6516c0-0.52082 0.07384-0.63819 0.65653-0.63819zm9.7631 9.3458c0.56537 0 1.0236 0.22291 1.0236 0.49779 0 0.27498-0.45824 0.49789-1.0236 0.49789-0.56527 0-1.0235-0.22291-1.0235-0.49789 0-0.27488 0.45824-0.49779 1.0235-0.49779zm-8.7852 0.14937c0.15838 0 0.31028 0.03667 0.42228 0.10206 0.11199 0.06539 0.17492 0.15394 0.17492 0.24636 0 0.09242-0.062926 0.18107-0.17493 0.24646-0.11199 0.06539-0.26389 0.10206-0.42227 0.10206-0.32979 0-0.59713-0.15602-0.59714-0.34852 1e-5 -0.1924 0.26735-0.34842 0.59714-0.34842zm1.3217 0c0.32979 0 0.59714 0.15602 0.59714 0.34842-1e-5 0.1925-0.26735 0.34852-0.59714 0.34852-0.15838 0-0.31027-0.03667-0.42227-0.10206-0.112-0.06539-0.17492-0.15404-0.17493-0.24646 9.9e-6 -0.09242 0.062926-0.18097 0.17493-0.24636 0.112-0.06539 0.26389-0.10206 0.42227-0.10206zm1.3771 0c0.32979 0 0.59713 0.15602 0.59714 0.34842-1e-5 0.1925-0.26735 0.34852-0.59714 0.34852-0.15838 0-0.31028-0.03667-0.42227-0.10206-0.112-0.06539-0.17492-0.15404-0.17493-0.24646 9.9e-6 -0.09242 0.062926-0.18097 0.17493-0.24636 0.11199-0.06539 0.26389-0.10206 0.42227-0.10206z" fill-rule="evenodd" style="paint-order:normal"/>
  <path d="m3.0821 2.1159h9.7358c0.45952 0 0.82946 0.36994 0.82946 0.82945v5.2447c0 0.45952-0.36994 0.82945-0.82946 0.82945h-9.7358c-0.45952 0-0.82945-0.36994-0.82945-0.82945v-5.2447c0-0.45952 0.36994-0.82945 0.82945-0.82945z" fill="none" class="crt-screen"/>
</svg>
