<svg
   viewBox="0 0 24 24"
   fill="currentColor"
   xmlns="http://www.w3.org/2000/svg"
   >
  <path
     fill-rule="evenodd"
     d="m 12,17.5 c 3.037568,0 5.499998,-2.462434 5.499998,-5.5 0,-3.0375661 -2.46243,-5.5 -5.499998,-5.5 -3.0375682,0 -5.4999976,2.4624339 -5.4999976,5.5 0,3.037566 2.4624294,5.5 5.4999976,5.5 z m 0,1.5 c 3.865996,0 6.999997,-3.134007 6.999997,-7 0,-3.8659932 -3.134001,-7 -6.999997,-7 -3.8659959,0 -6.999997,3.1340068 -6.999997,7 0,3.865993 3.1340011,7 6.999997,7 z m 12,-7 c 0,0.441828 -0.358172,0.8 -0.8,0.8 h -2.4 c -1.066666,0 -1.066666,-1.6 0,-1.6 h 2.4 c 0.441828,0 0.8,0.358172 0.8,0.8 z M 3.2,12.8 H 0.8 c -1.0666662,0 -1.0666662,-1.6 0,-1.6 h 2.5 c 0.4418278,0 0.8,0.358172 0.75,0.8 C 4,12.441828 3.6418278,12.8 3.2,12.8 Z M 20.5,4.5 18.7,6.3 c -0.613924,0.1890369 -1.189037,-0.3860762 -1,-1 L 19.4,3.5 C 19.692266,3.2659997 20.107734,3.2659997 20.420867,3.529133 20.734,3.7922662 20.734,4.2077338 20.5,4.5 Z M 6.3,17.7 c 0.2340003,0.292266 0.2340003,0.707734 0,1 l -1.7,1.8 c -0.7191498,0.71915 -1.6972467,-0.302753 -1,-1 l 1.7,-1.8 c 0.2922662,-0.234 0.7077338,-0.234 1,0 z M 12,0 c 0.441828,0 0.8,0.3581722 0.8,0.8 v 2.5 c 0,1.0666662 -1.6,1.0666662 -1.6,0 V 0.8 C 11.2,0.3581722 11.558172,0 12,0 Z m 0,20 c 0.441828,0 0.8,0.358172 0.8,0.8 v 2.4 c 0,1.066666 -1.6,1.066666 -1.6,0 V 20.8 C 11.2,20.358172 11.558172,20 12,20 Z M 4.5,3.5 6.3,5.3 c 0.7010924,0.7010924 -0.1701933,1.8298067 -1,1 L 3.5,4.6 C 3.2659997,4.3077338 3.2659997,3.8922662 3.529133,3.579133 3.7922662,3.2659997 4.2077338,3.2659997 4.5,3.5 Z m 13.2,14.2 c 0.292266,-0.234 0.707734,-0.234 1,0 l 1.8,1.7 c 0.802285,0.802285 -0.268602,1.731398 -1,1 l -1.8,-1.7 c -0.234,-0.292266 -0.234,-0.707734 0,-1 z"
    />
</svg>
